# xmcd
#
# Track frame offsets:
#	150
#	5459
#	23039
#	42597
#	60189
#	79887
#	107109
#	127289
#	150162
#	169784
#	190039
#	227607
#	252012
#
# Disc length: 3588 seconds
#
# Revision: 2
# Processed by: cddbd v1.5.2PL0 Copyright (c) Steve Scherf et al.
# Submitted via: EasyCDDAExtractor 9.0.0.1
#
DISCID=970e020d
DTITLE=Kiss - Globen Stockholm 06-12-96 Disc 1
DYEAR=1996
DGENRE=Hard Rock
TTITLE0=Intro
TTITLE1=Deuce
TTITLE2=King Of The Night Time World
TTITLE3=Do You Love Me
TTITLE4=Calling Dr. Love
TTITLE5=Cold Gin
TTITLE6=Watching You
TTITLE7=Firehouse
TTITLE8=I Stole Your Love
TTITLE9=Shock Me
TTITLE10=Ace Guitar Preludium
TTITLE11=Let Me Go, Rock 'N' Roll
TTITLE12=Shout It Out Loud
EXTD=Live at the Globe Arena, Stockholm, Sweden on December 6 1996
EXTT0=
EXTT1=
EXTT2=
EXTT3=
EXTT4=
EXTT5=
EXTT6=
EXTT7=
EXTT8=
EXTT9=
EXTT10=
EXTT11=
EXTT12=
PLAYORDER=
